<svg width="108" height="22" viewBox="0 0 108 22" fill="none" xmlns="http://www.w3.org/2000/svg">
<g clip-path="url(#clip0_201_2)">
<path d="M107.809 16.7766V19.4606H105.567C103.174 19.3851 101.896 18.0877 101.896 15.6509V9.52094H100.331V7.16645H101.896V4.53052H105.204V7.13899H107.733V9.48662H105.204V15.3214C105.204 16.1108 105.361 16.7423 106.571 16.7423L107.809 16.7766Z" fill="white"/>
<path d="M87.1451 13.3376V13.1591C87.1093 12.3696 87.229 11.5807 87.4974 10.8378C87.7658 10.0948 88.1775 9.41237 88.709 8.82952C89.2405 8.24666 89.8813 7.77488 90.5947 7.4412C91.3081 7.10752 92.0801 6.91851 92.8664 6.88501C93.0236 6.88501 93.1876 6.88501 93.3448 6.88501C96.4686 6.88501 99.2097 8.71094 99.2097 13.063V13.9897H90.5286C90.6175 15.9941 91.6975 17.1267 93.5157 17.1267C95.081 17.1267 95.8124 16.4403 96.0243 15.4381H99.1481C98.7654 18.0534 96.6874 19.5087 93.3995 19.5087C89.7904 19.4812 87.1451 17.1885 87.1451 13.3376ZM95.956 11.8892C95.8398 10.0632 94.9238 9.18459 93.3312 9.18459C91.7385 9.18459 90.8226 10.1731 90.597 11.8892H95.956Z" fill="white"/>
<path d="M73.6383 13.3376V13.1591C73.6025 12.3707 73.7217 11.5829 73.9892 10.8408C74.2568 10.0987 74.6673 9.41688 75.1974 8.8342C75.7274 8.25153 76.3666 7.77947 77.0785 7.44502C77.7903 7.11056 78.5608 6.92027 79.3459 6.88501C79.5031 6.88501 79.6672 6.88501 79.8244 6.88501C82.9482 6.88501 85.696 8.71094 85.696 13.063V13.9897H77.0218C77.1107 15.9941 78.1907 17.1267 80.0089 17.1267C81.5742 17.1267 82.3056 16.4403 82.5175 15.4381H85.6413C85.2517 18.0534 83.1737 19.5087 79.8859 19.5087C76.2836 19.4812 73.6383 17.1885 73.6383 13.3376ZM82.4492 11.8892C82.333 10.0632 81.417 9.18459 79.8244 9.18459C78.2317 9.18459 77.3431 10.2005 77.0902 11.8823L82.4492 11.8892Z" fill="white"/>
<path d="M54.6836 7.13892H58.1833L60.3228 15.2801L62.6674 7.13892H65.4016L67.5206 15.2801L69.7762 7.13892H72.9821L69.1816 19.234H65.9006L63.8499 11.642L61.6557 19.234H58.3337L54.6836 7.13892Z" fill="white"/>
<path d="M43.5623 15.4311H46.6861C46.8296 16.5225 47.3696 17.1472 48.805 17.1472C50.0901 17.1472 50.6848 16.6598 50.6848 15.8292C50.6848 14.9986 50.0012 14.6485 48.2514 14.4014C45.0456 13.914 43.8083 12.9873 43.8083 10.626C43.8083 8.10674 46.105 6.85742 48.5931 6.85742C51.2658 6.85742 53.2823 7.83217 53.5693 10.6123H50.4866C50.4669 10.3973 50.405 10.1885 50.3045 9.99769C50.204 9.80692 50.0668 9.63805 49.9009 9.50082C49.735 9.3636 49.5437 9.26074 49.338 9.19819C49.1323 9.13564 48.9163 9.11464 48.7025 9.1364H48.6C47.52 9.1364 46.8911 9.64437 46.8911 10.3857C46.8911 11.1271 47.4721 11.4497 49.2357 11.7037C52.2296 12.1567 53.9043 12.9187 53.9043 15.5066C53.9043 18.0945 52.0109 19.4811 48.8392 19.4811C45.6676 19.4811 43.6511 18.0464 43.5623 15.4311Z" fill="white"/>
<path d="M30.2878 7.13895H33.5962V9.05412C33.9691 8.35116 34.5351 7.77049 35.227 7.3811C35.9189 6.99172 36.7075 6.80999 37.4992 6.85751C39.8438 6.85751 41.5458 8.29217 41.5458 11.5665V19.2615H38.2785V12.047C38.2785 10.4064 37.6428 9.62387 36.1663 9.62387C35.8543 9.59658 35.5399 9.63146 35.2413 9.7265C34.9427 9.82155 34.6657 9.97488 34.4263 10.1777C34.1868 10.3805 33.9897 10.6288 33.846 10.9084C33.7024 11.188 33.6152 11.4932 33.5894 11.8067C33.5723 11.9527 33.5723 12.1001 33.5894 12.2461V19.234H30.2878V7.13895Z" fill="white"/>
<path d="M23.9034 4.09806C23.8915 3.76681 23.9776 3.43943 24.151 3.15738C24.3244 2.87532 24.5772 2.65128 24.8775 2.5136C25.1777 2.37593 25.5119 2.33082 25.8377 2.38399C26.1635 2.43716 26.4663 2.58621 26.7077 2.81228C26.9491 3.03835 27.1182 3.33126 27.1938 3.65394C27.2693 3.97661 27.2478 4.31454 27.132 4.62494C27.0162 4.93533 26.8112 5.20424 26.5432 5.39761C26.2751 5.59098 25.9559 5.70011 25.626 5.7112H25.5645C25.3597 5.72421 25.1544 5.6965 24.9604 5.62966C24.7663 5.56281 24.5873 5.45815 24.4336 5.32167C24.2799 5.18519 24.1546 5.01958 24.0648 4.83434C23.975 4.6491 23.9225 4.44788 23.9103 4.24222C23.9046 4.19439 23.9023 4.14622 23.9034 4.09806ZM23.9034 7.139H27.246V19.2341H23.9171L23.9034 7.139Z" fill="white"/>
<path d="M11.3059 2.70459H21.8735V5.63569H15.0381V10.0083H20.4517V12.8296H15.0312V19.2341H11.3059V2.70459Z" fill="white"/>
<path d="M4.92835 8.11373C4.92835 9.15025 4.92835 10.4133 3.50658 10.9281C4.96253 11.4292 4.92835 12.4932 4.92835 13.6053V17.7239C4.92835 18.5064 5.24278 18.9801 5.80329 19.0968C5.92645 19.1385 6.05621 19.1571 6.18608 19.1517H7.55316V21.8975H5.29747C2.89139 21.8975 1.56532 20.5246 1.56532 17.9779V13.1042C1.54825 12.8539 1.43839 12.6192 1.25743 12.4464C1.07646 12.2736 0.837545 12.1752 0.587848 12.1706H0V9.76118H0.587848C0.842527 9.75781 1.08614 9.6561 1.26814 9.47717C1.45014 9.29823 1.55656 9.0558 1.56532 8.80017V3.8578C1.56532 1.35229 2.86405 0 5.29747 0H7.57367V2.70458H6.20658C6.07656 2.70495 5.94739 2.7258 5.8238 2.76636C5.26329 2.91051 4.94886 3.37729 4.94886 4.13924L4.92835 8.11373Z" fill="white"/>
</g>
<defs>
<clipPath id="clip0_201_2">
<rect width="108" height="21.9661" fill="white"/>
</clipPath>
</defs>
</svg>
